<mxfile host="app.diagrams.net" agent="Mozilla/5.0 (Windows NT 10.0; Win64; x64) AppleWebKit/537.36 (KHTML, like Gecko) Chrome/131.0.0.0 Safari/537.36 Edg/131.0.0.0" version="26.0.3">
  <diagram name="Página-1" id="EIRcIgvsLiuhS9OvBBlx">
    <mxGraphModel dx="2181" dy="809" grid="1" gridSize="10" guides="1" tooltips="1" connect="1" arrows="1" fold="1" page="1" pageScale="1" pageWidth="827" pageHeight="1169" math="0" shadow="0">
      <root>
        <mxCell id="0" />
        <mxCell id="1" parent="0" />
        <mxCell id="IHEbnnW-f_empLL4NaC--1" value="&lt;b&gt;EVENTO&lt;/b&gt;" style="whiteSpace=wrap;html=1;align=center;fillColor=#007FFF;" vertex="1" parent="1">
          <mxGeometry x="-70" y="175" width="100" height="40" as="geometry" />
        </mxCell>
        <mxCell id="IHEbnnW-f_empLL4NaC--2" value="&lt;b&gt;ASIENTO&lt;/b&gt;" style="whiteSpace=wrap;html=1;align=center;fillColor=#007FFF;" vertex="1" parent="1">
          <mxGeometry x="630" y="165" width="100" height="40" as="geometry" />
        </mxCell>
        <mxCell id="IHEbnnW-f_empLL4NaC--3" value="&lt;b&gt;SECCIÓN&lt;/b&gt;" style="whiteSpace=wrap;html=1;align=center;fillColor=#007FFF;" vertex="1" parent="1">
          <mxGeometry x="280" y="170" width="100" height="40" as="geometry" />
        </mxCell>
        <mxCell id="IHEbnnW-f_empLL4NaC--4" value="&lt;b&gt;COMPRA&lt;/b&gt;" style="whiteSpace=wrap;html=1;align=center;fillColor=#007FFF;" vertex="1" parent="1">
          <mxGeometry x="270" y="440" width="100" height="40" as="geometry" />
        </mxCell>
        <mxCell id="IHEbnnW-f_empLL4NaC--5" value="&lt;b&gt;BOLETO&lt;/b&gt;" style="whiteSpace=wrap;html=1;align=center;fillColor=#007FFF;" vertex="1" parent="1">
          <mxGeometry x="-90" y="430" width="100" height="40" as="geometry" />
        </mxCell>
        <mxCell id="IHEbnnW-f_empLL4NaC--7" value="idEvento" style="ellipse;whiteSpace=wrap;html=1;align=center;fontStyle=4;" vertex="1" parent="1">
          <mxGeometry x="-10" y="85" width="100" height="40" as="geometry" />
        </mxCell>
        <mxCell id="IHEbnnW-f_empLL4NaC--9" value="Nombre" style="ellipse;whiteSpace=wrap;html=1;align=center;" vertex="1" parent="1">
          <mxGeometry x="90" y="120" width="100" height="40" as="geometry" />
        </mxCell>
        <mxCell id="IHEbnnW-f_empLL4NaC--10" value="Fecha" style="ellipse;whiteSpace=wrap;html=1;align=center;" vertex="1" parent="1">
          <mxGeometry x="30" y="245" width="100" height="40" as="geometry" />
        </mxCell>
        <mxCell id="IHEbnnW-f_empLL4NaC--11" value="Hora" style="ellipse;whiteSpace=wrap;html=1;align=center;" vertex="1" parent="1">
          <mxGeometry x="-140" y="85" width="100" height="40" as="geometry" />
        </mxCell>
        <mxCell id="IHEbnnW-f_empLL4NaC--12" value="Descripción" style="ellipse;whiteSpace=wrap;html=1;align=center;" vertex="1" parent="1">
          <mxGeometry x="-60" y="275" width="100" height="40" as="geometry" />
        </mxCell>
        <mxCell id="IHEbnnW-f_empLL4NaC--15" value="Artista" style="ellipse;whiteSpace=wrap;html=1;align=center;" vertex="1" parent="1">
          <mxGeometry x="-230" y="245" width="100" height="40" as="geometry" />
        </mxCell>
        <mxCell id="IHEbnnW-f_empLL4NaC--20" value="" style="endArrow=none;html=1;rounded=0;entryX=0.581;entryY=0.941;entryDx=0;entryDy=0;entryPerimeter=0;" edge="1" parent="1" target="IHEbnnW-f_empLL4NaC--11">
          <mxGeometry width="50" height="50" relative="1" as="geometry">
            <mxPoint x="-60" y="175" as="sourcePoint" />
            <mxPoint x="-10" y="125" as="targetPoint" />
          </mxGeometry>
        </mxCell>
        <mxCell id="IHEbnnW-f_empLL4NaC--21" value="" style="endArrow=none;html=1;rounded=0;entryX=0.259;entryY=1.006;entryDx=0;entryDy=0;entryPerimeter=0;" edge="1" parent="1" target="IHEbnnW-f_empLL4NaC--7">
          <mxGeometry width="50" height="50" relative="1" as="geometry">
            <mxPoint x="-30" y="175" as="sourcePoint" />
            <mxPoint x="20" y="125" as="targetPoint" />
          </mxGeometry>
        </mxCell>
        <mxCell id="IHEbnnW-f_empLL4NaC--22" value="Reacción" style="ellipse;whiteSpace=wrap;html=1;align=center;" vertex="1" parent="1">
          <mxGeometry x="-240" y="180" width="100" height="40" as="geometry" />
        </mxCell>
        <mxCell id="IHEbnnW-f_empLL4NaC--23" value="" style="endArrow=none;html=1;rounded=0;exitX=1;exitY=0.5;exitDx=0;exitDy=0;entryX=0;entryY=0.5;entryDx=0;entryDy=0;" edge="1" parent="1" source="IHEbnnW-f_empLL4NaC--1" target="IHEbnnW-f_empLL4NaC--9">
          <mxGeometry relative="1" as="geometry">
            <mxPoint x="-60" y="164.5" as="sourcePoint" />
            <mxPoint x="90" y="165" as="targetPoint" />
          </mxGeometry>
        </mxCell>
        <mxCell id="IHEbnnW-f_empLL4NaC--28" value="" style="endArrow=none;html=1;rounded=0;exitX=0.992;exitY=0.325;exitDx=0;exitDy=0;exitPerimeter=0;" edge="1" parent="1" source="IHEbnnW-f_empLL4NaC--15">
          <mxGeometry width="50" height="50" relative="1" as="geometry">
            <mxPoint x="-110" y="265" as="sourcePoint" />
            <mxPoint x="-60" y="215" as="targetPoint" />
          </mxGeometry>
        </mxCell>
        <mxCell id="IHEbnnW-f_empLL4NaC--30" value="" style="endArrow=none;html=1;rounded=0;entryX=0.75;entryY=1;entryDx=0;entryDy=0;exitX=0.307;exitY=0.07;exitDx=0;exitDy=0;exitPerimeter=0;" edge="1" parent="1" source="IHEbnnW-f_empLL4NaC--10" target="IHEbnnW-f_empLL4NaC--1">
          <mxGeometry width="50" height="50" relative="1" as="geometry">
            <mxPoint x="220" y="315" as="sourcePoint" />
            <mxPoint x="270" y="265" as="targetPoint" />
          </mxGeometry>
        </mxCell>
        <mxCell id="IHEbnnW-f_empLL4NaC--31" value="" style="endArrow=none;html=1;rounded=0;entryX=0;entryY=0.5;entryDx=0;entryDy=0;" edge="1" parent="1" target="IHEbnnW-f_empLL4NaC--1">
          <mxGeometry width="50" height="50" relative="1" as="geometry">
            <mxPoint x="-140" y="200" as="sourcePoint" />
            <mxPoint x="270" y="265" as="targetPoint" />
          </mxGeometry>
        </mxCell>
        <mxCell id="IHEbnnW-f_empLL4NaC--32" value="" style="endArrow=none;html=1;rounded=0;entryX=0.5;entryY=1;entryDx=0;entryDy=0;exitX=0.407;exitY=0.098;exitDx=0;exitDy=0;exitPerimeter=0;" edge="1" parent="1" source="IHEbnnW-f_empLL4NaC--12" target="IHEbnnW-f_empLL4NaC--1">
          <mxGeometry width="50" height="50" relative="1" as="geometry">
            <mxPoint x="220" y="315" as="sourcePoint" />
            <mxPoint x="270" y="265" as="targetPoint" />
          </mxGeometry>
        </mxCell>
        <mxCell id="IHEbnnW-f_empLL4NaC--33" value="idAsiento" style="ellipse;whiteSpace=wrap;html=1;align=center;fontStyle=4;" vertex="1" parent="1">
          <mxGeometry x="780" y="165" width="100" height="40" as="geometry" />
        </mxCell>
        <mxCell id="IHEbnnW-f_empLL4NaC--34" value="Número" style="ellipse;whiteSpace=wrap;html=1;align=center;" vertex="1" parent="1">
          <mxGeometry x="730" y="225" width="100" height="40" as="geometry" />
        </mxCell>
        <mxCell id="IHEbnnW-f_empLL4NaC--35" value="Estado" style="ellipse;whiteSpace=wrap;html=1;align=center;" vertex="1" parent="1">
          <mxGeometry x="600" y="235" width="100" height="40" as="geometry" />
        </mxCell>
        <mxCell id="IHEbnnW-f_empLL4NaC--36" value="Precio" style="ellipse;whiteSpace=wrap;html=1;align=center;" vertex="1" parent="1">
          <mxGeometry x="640" y="95" width="100" height="40" as="geometry" />
        </mxCell>
        <mxCell id="IHEbnnW-f_empLL4NaC--37" value="" style="endArrow=none;html=1;rounded=0;exitX=0.5;exitY=0;exitDx=0;exitDy=0;" edge="1" parent="1" source="IHEbnnW-f_empLL4NaC--35">
          <mxGeometry width="50" height="50" relative="1" as="geometry">
            <mxPoint x="700" y="335" as="sourcePoint" />
            <mxPoint x="660" y="205" as="targetPoint" />
          </mxGeometry>
        </mxCell>
        <mxCell id="IHEbnnW-f_empLL4NaC--38" value="" style="endArrow=none;html=1;rounded=0;entryX=1;entryY=0.5;entryDx=0;entryDy=0;exitX=0;exitY=0.5;exitDx=0;exitDy=0;" edge="1" parent="1" source="IHEbnnW-f_empLL4NaC--33" target="IHEbnnW-f_empLL4NaC--2">
          <mxGeometry width="50" height="50" relative="1" as="geometry">
            <mxPoint x="770" y="185" as="sourcePoint" />
            <mxPoint x="750" y="285" as="targetPoint" />
          </mxGeometry>
        </mxCell>
        <mxCell id="IHEbnnW-f_empLL4NaC--39" value="" style="endArrow=none;html=1;rounded=0;entryX=1;entryY=1;entryDx=0;entryDy=0;exitX=0;exitY=0;exitDx=0;exitDy=0;" edge="1" parent="1" source="IHEbnnW-f_empLL4NaC--34" target="IHEbnnW-f_empLL4NaC--2">
          <mxGeometry width="50" height="50" relative="1" as="geometry">
            <mxPoint x="700" y="335" as="sourcePoint" />
            <mxPoint x="750" y="285" as="targetPoint" />
          </mxGeometry>
        </mxCell>
        <mxCell id="IHEbnnW-f_empLL4NaC--40" value="" style="endArrow=none;html=1;rounded=0;entryX=0.589;entryY=-0.022;entryDx=0;entryDy=0;entryPerimeter=0;exitX=0.5;exitY=1;exitDx=0;exitDy=0;" edge="1" parent="1" source="IHEbnnW-f_empLL4NaC--36" target="IHEbnnW-f_empLL4NaC--2">
          <mxGeometry width="50" height="50" relative="1" as="geometry">
            <mxPoint x="700" y="335" as="sourcePoint" />
            <mxPoint x="750" y="285" as="targetPoint" />
          </mxGeometry>
        </mxCell>
        <mxCell id="IHEbnnW-f_empLL4NaC--41" value="Nombre" style="ellipse;whiteSpace=wrap;html=1;align=center;" vertex="1" parent="1">
          <mxGeometry x="210" y="250" width="100" height="40" as="geometry" />
        </mxCell>
        <mxCell id="IHEbnnW-f_empLL4NaC--43" value="Capacidad" style="ellipse;whiteSpace=wrap;html=1;align=center;" vertex="1" parent="1">
          <mxGeometry x="330" y="250" width="100" height="40" as="geometry" />
        </mxCell>
        <mxCell id="IHEbnnW-f_empLL4NaC--45" value="idSeccion" style="ellipse;whiteSpace=wrap;html=1;align=center;fontStyle=4;" vertex="1" parent="1">
          <mxGeometry x="280" y="110" width="100" height="40" as="geometry" />
        </mxCell>
        <mxCell id="IHEbnnW-f_empLL4NaC--46" value="" style="endArrow=none;html=1;rounded=0;exitX=0.5;exitY=1;exitDx=0;exitDy=0;entryX=0.5;entryY=0;entryDx=0;entryDy=0;" edge="1" parent="1" source="IHEbnnW-f_empLL4NaC--45" target="IHEbnnW-f_empLL4NaC--3">
          <mxGeometry width="50" height="50" relative="1" as="geometry">
            <mxPoint x="340" y="40" as="sourcePoint" />
            <mxPoint x="390" y="-10" as="targetPoint" />
          </mxGeometry>
        </mxCell>
        <mxCell id="IHEbnnW-f_empLL4NaC--47" value="" style="endArrow=none;html=1;rounded=0;entryX=0.5;entryY=0;entryDx=0;entryDy=0;exitX=0.25;exitY=1;exitDx=0;exitDy=0;" edge="1" parent="1" source="IHEbnnW-f_empLL4NaC--3" target="IHEbnnW-f_empLL4NaC--41">
          <mxGeometry width="50" height="50" relative="1" as="geometry">
            <mxPoint x="340" y="40" as="sourcePoint" />
            <mxPoint x="390" y="-10" as="targetPoint" />
          </mxGeometry>
        </mxCell>
        <mxCell id="IHEbnnW-f_empLL4NaC--48" value="" style="endArrow=none;html=1;rounded=0;entryX=0.5;entryY=0;entryDx=0;entryDy=0;" edge="1" parent="1" target="IHEbnnW-f_empLL4NaC--43">
          <mxGeometry width="50" height="50" relative="1" as="geometry">
            <mxPoint x="340" y="210" as="sourcePoint" />
            <mxPoint x="390" y="-10" as="targetPoint" />
          </mxGeometry>
        </mxCell>
        <mxCell id="IHEbnnW-f_empLL4NaC--49" value="idCompra" style="ellipse;whiteSpace=wrap;html=1;align=center;fontStyle=4;" vertex="1" parent="1">
          <mxGeometry x="420" y="450" width="100" height="40" as="geometry" />
        </mxCell>
        <mxCell id="IHEbnnW-f_empLL4NaC--50" value="Fecha" style="ellipse;whiteSpace=wrap;html=1;align=center;" vertex="1" parent="1">
          <mxGeometry x="290" y="510" width="100" height="40" as="geometry" />
        </mxCell>
        <mxCell id="IHEbnnW-f_empLL4NaC--51" value="Hora" style="ellipse;whiteSpace=wrap;html=1;align=center;" vertex="1" parent="1">
          <mxGeometry x="170" y="510" width="100" height="40" as="geometry" />
        </mxCell>
        <mxCell id="IHEbnnW-f_empLL4NaC--54" value="Detalles" style="ellipse;whiteSpace=wrap;html=1;align=center;" vertex="1" parent="1">
          <mxGeometry x="280" y="380" width="100" height="40" as="geometry" />
        </mxCell>
        <mxCell id="IHEbnnW-f_empLL4NaC--55" value="" style="endArrow=none;html=1;rounded=0;entryX=0.5;entryY=1;entryDx=0;entryDy=0;exitX=0.5;exitY=0;exitDx=0;exitDy=0;" edge="1" parent="1" source="IHEbnnW-f_empLL4NaC--4" target="IHEbnnW-f_empLL4NaC--54">
          <mxGeometry width="50" height="50" relative="1" as="geometry">
            <mxPoint x="620" y="300" as="sourcePoint" />
            <mxPoint x="310" y="400" as="targetPoint" />
          </mxGeometry>
        </mxCell>
        <mxCell id="IHEbnnW-f_empLL4NaC--56" value="" style="endArrow=none;html=1;rounded=0;exitX=1;exitY=0.75;exitDx=0;exitDy=0;entryX=0;entryY=0.5;entryDx=0;entryDy=0;" edge="1" parent="1" source="IHEbnnW-f_empLL4NaC--4" target="IHEbnnW-f_empLL4NaC--49">
          <mxGeometry width="50" height="50" relative="1" as="geometry">
            <mxPoint x="620" y="300" as="sourcePoint" />
            <mxPoint x="670" y="250" as="targetPoint" />
          </mxGeometry>
        </mxCell>
        <mxCell id="IHEbnnW-f_empLL4NaC--57" value="" style="endArrow=none;html=1;rounded=0;exitX=0.663;exitY=1.043;exitDx=0;exitDy=0;exitPerimeter=0;entryX=0.5;entryY=0;entryDx=0;entryDy=0;" edge="1" parent="1" source="IHEbnnW-f_empLL4NaC--4" target="IHEbnnW-f_empLL4NaC--50">
          <mxGeometry width="50" height="50" relative="1" as="geometry">
            <mxPoint x="620" y="300" as="sourcePoint" />
            <mxPoint x="670" y="250" as="targetPoint" />
          </mxGeometry>
        </mxCell>
        <mxCell id="IHEbnnW-f_empLL4NaC--58" value="" style="endArrow=none;html=1;rounded=0;entryX=0;entryY=1;entryDx=0;entryDy=0;exitX=0.67;exitY=0.033;exitDx=0;exitDy=0;exitPerimeter=0;" edge="1" parent="1" source="IHEbnnW-f_empLL4NaC--51" target="IHEbnnW-f_empLL4NaC--4">
          <mxGeometry width="50" height="50" relative="1" as="geometry">
            <mxPoint x="620" y="300" as="sourcePoint" />
            <mxPoint x="670" y="250" as="targetPoint" />
          </mxGeometry>
        </mxCell>
        <mxCell id="IHEbnnW-f_empLL4NaC--59" value="" style="endArrow=none;html=1;rounded=0;entryX=1;entryY=1;entryDx=0;entryDy=0;exitX=0.04;exitY=0.293;exitDx=0;exitDy=0;exitPerimeter=0;" edge="1" parent="1" source="IHEbnnW-f_empLL4NaC--87" target="IHEbnnW-f_empLL4NaC--4">
          <mxGeometry width="50" height="50" relative="1" as="geometry">
            <mxPoint x="452.1999999999998" y="525.04" as="sourcePoint" />
            <mxPoint x="670" y="250" as="targetPoint" />
          </mxGeometry>
        </mxCell>
        <mxCell id="IHEbnnW-f_empLL4NaC--60" value="idBoleto" style="ellipse;whiteSpace=wrap;html=1;align=center;fontStyle=4;" vertex="1" parent="1">
          <mxGeometry x="-100" y="510" width="100" height="40" as="geometry" />
        </mxCell>
        <mxCell id="IHEbnnW-f_empLL4NaC--63" value="Código QR" style="ellipse;whiteSpace=wrap;html=1;align=center;" vertex="1" parent="1">
          <mxGeometry x="-210" y="430" width="100" height="40" as="geometry" />
        </mxCell>
        <mxCell id="IHEbnnW-f_empLL4NaC--64" value="" style="endArrow=none;html=1;rounded=0;exitX=0.5;exitY=0;exitDx=0;exitDy=0;entryX=0.5;entryY=1;entryDx=0;entryDy=0;" edge="1" parent="1" source="IHEbnnW-f_empLL4NaC--60" target="IHEbnnW-f_empLL4NaC--5">
          <mxGeometry width="50" height="50" relative="1" as="geometry">
            <mxPoint x="370" y="370" as="sourcePoint" />
            <mxPoint x="420" y="320" as="targetPoint" />
          </mxGeometry>
        </mxCell>
        <mxCell id="IHEbnnW-f_empLL4NaC--65" value="" style="endArrow=none;html=1;rounded=0;exitX=0;exitY=0.5;exitDx=0;exitDy=0;entryX=1;entryY=0.5;entryDx=0;entryDy=0;" edge="1" parent="1" source="IHEbnnW-f_empLL4NaC--5" target="IHEbnnW-f_empLL4NaC--63">
          <mxGeometry width="50" height="50" relative="1" as="geometry">
            <mxPoint x="370" y="370" as="sourcePoint" />
            <mxPoint x="40" y="450" as="targetPoint" />
            <Array as="points" />
          </mxGeometry>
        </mxCell>
        <mxCell id="IHEbnnW-f_empLL4NaC--68" value="Tiene" style="shape=rhombus;perimeter=rhombusPerimeter;whiteSpace=wrap;html=1;align=center;fillColor=#6666FF;" vertex="1" parent="1">
          <mxGeometry x="110" y="170" width="120" height="60" as="geometry" />
        </mxCell>
        <mxCell id="IHEbnnW-f_empLL4NaC--73" value="" style="fontSize=12;html=1;endArrow=ERone;endFill=1;rounded=0;entryX=1;entryY=0.75;entryDx=0;entryDy=0;exitX=0;exitY=0.5;exitDx=0;exitDy=0;" edge="1" parent="1" source="IHEbnnW-f_empLL4NaC--68" target="IHEbnnW-f_empLL4NaC--1">
          <mxGeometry width="100" height="100" relative="1" as="geometry">
            <mxPoint x="360" y="340" as="sourcePoint" />
            <mxPoint x="460" y="240" as="targetPoint" />
          </mxGeometry>
        </mxCell>
        <mxCell id="IHEbnnW-f_empLL4NaC--74" value="" style="fontSize=12;html=1;endArrow=ERmany;rounded=0;exitX=1;exitY=0.5;exitDx=0;exitDy=0;entryX=0;entryY=0.75;entryDx=0;entryDy=0;" edge="1" parent="1" source="IHEbnnW-f_empLL4NaC--68" target="IHEbnnW-f_empLL4NaC--3">
          <mxGeometry width="100" height="100" relative="1" as="geometry">
            <mxPoint x="250" y="210" as="sourcePoint" />
            <mxPoint x="460" y="240" as="targetPoint" />
          </mxGeometry>
        </mxCell>
        <mxCell id="IHEbnnW-f_empLL4NaC--76" value="Contiene" style="shape=rhombus;perimeter=rhombusPerimeter;whiteSpace=wrap;html=1;align=center;fillColor=#6666FF;" vertex="1" parent="1">
          <mxGeometry x="440" y="160" width="120" height="60" as="geometry" />
        </mxCell>
        <mxCell id="IHEbnnW-f_empLL4NaC--77" value="" style="fontSize=12;html=1;endArrow=ERone;endFill=1;rounded=0;entryX=1;entryY=0.5;entryDx=0;entryDy=0;exitX=0;exitY=0.5;exitDx=0;exitDy=0;" edge="1" parent="1" source="IHEbnnW-f_empLL4NaC--76" target="IHEbnnW-f_empLL4NaC--3">
          <mxGeometry width="100" height="100" relative="1" as="geometry">
            <mxPoint x="360" y="340" as="sourcePoint" />
            <mxPoint x="460" y="240" as="targetPoint" />
          </mxGeometry>
        </mxCell>
        <mxCell id="IHEbnnW-f_empLL4NaC--78" value="" style="fontSize=12;html=1;endArrow=ERmany;rounded=0;exitX=1;exitY=0.5;exitDx=0;exitDy=0;entryX=0;entryY=0.5;entryDx=0;entryDy=0;" edge="1" parent="1" source="IHEbnnW-f_empLL4NaC--76" target="IHEbnnW-f_empLL4NaC--2">
          <mxGeometry width="100" height="100" relative="1" as="geometry">
            <mxPoint x="570" y="99" as="sourcePoint" />
            <mxPoint x="620" y="99" as="targetPoint" />
          </mxGeometry>
        </mxCell>
        <mxCell id="IHEbnnW-f_empLL4NaC--80" value="Genera" style="shape=rhombus;perimeter=rhombusPerimeter;whiteSpace=wrap;html=1;align=center;fillColor=#6666FF;" vertex="1" parent="1">
          <mxGeometry x="80" y="440" width="120" height="60" as="geometry" />
        </mxCell>
        <mxCell id="IHEbnnW-f_empLL4NaC--82" value="" style="fontSize=12;html=1;endArrow=ERone;endFill=1;rounded=0;entryX=0;entryY=0.75;entryDx=0;entryDy=0;exitX=1;exitY=0.5;exitDx=0;exitDy=0;" edge="1" parent="1" source="IHEbnnW-f_empLL4NaC--80" target="IHEbnnW-f_empLL4NaC--4">
          <mxGeometry width="100" height="100" relative="1" as="geometry">
            <mxPoint x="320" y="390" as="sourcePoint" />
            <mxPoint x="210" y="415" as="targetPoint" />
          </mxGeometry>
        </mxCell>
        <mxCell id="IHEbnnW-f_empLL4NaC--84" value="Pertenece" style="shape=rhombus;perimeter=rhombusPerimeter;whiteSpace=wrap;html=1;align=center;fillColor=#6666FF;" vertex="1" parent="1">
          <mxGeometry x="-100" y="350" width="120" height="60" as="geometry" />
        </mxCell>
        <mxCell id="IHEbnnW-f_empLL4NaC--85" value="" style="fontSize=12;html=1;endArrow=ERmany;rounded=0;entryX=0.5;entryY=0;entryDx=0;entryDy=0;exitX=0.5;exitY=1;exitDx=0;exitDy=0;" edge="1" parent="1" source="IHEbnnW-f_empLL4NaC--84" target="IHEbnnW-f_empLL4NaC--5">
          <mxGeometry width="100" height="100" relative="1" as="geometry">
            <mxPoint x="210" y="440" as="sourcePoint" />
            <mxPoint x="310" y="340" as="targetPoint" />
          </mxGeometry>
        </mxCell>
        <mxCell id="IHEbnnW-f_empLL4NaC--86" value="" style="fontSize=12;html=1;endArrow=ERone;endFill=1;rounded=0;entryX=0.326;entryY=0.964;entryDx=0;entryDy=0;entryPerimeter=0;exitX=0;exitY=0;exitDx=0;exitDy=0;" edge="1" parent="1" source="IHEbnnW-f_empLL4NaC--84" target="IHEbnnW-f_empLL4NaC--1">
          <mxGeometry width="100" height="100" relative="1" as="geometry">
            <mxPoint x="210" y="440" as="sourcePoint" />
            <mxPoint x="310" y="340" as="targetPoint" />
            <Array as="points">
              <mxPoint x="-90" y="290" />
            </Array>
          </mxGeometry>
        </mxCell>
        <mxCell id="IHEbnnW-f_empLL4NaC--87" value="Total" style="ellipse;whiteSpace=wrap;html=1;align=center;" vertex="1" parent="1">
          <mxGeometry x="440" y="510" width="100" height="40" as="geometry" />
        </mxCell>
        <mxCell id="IHEbnnW-f_empLL4NaC--88" value="Incluye" style="shape=rhombus;perimeter=rhombusPerimeter;whiteSpace=wrap;html=1;align=center;fillColor=#6666FF;" vertex="1" parent="1">
          <mxGeometry x="440" y="340" width="120" height="60" as="geometry" />
        </mxCell>
        <mxCell id="IHEbnnW-f_empLL4NaC--89" value="" style="fontSize=12;html=1;endArrow=ERone;endFill=1;rounded=0;entryX=1;entryY=0;entryDx=0;entryDy=0;exitX=0;exitY=0.5;exitDx=0;exitDy=0;" edge="1" parent="1" source="IHEbnnW-f_empLL4NaC--88" target="IHEbnnW-f_empLL4NaC--4">
          <mxGeometry width="100" height="100" relative="1" as="geometry">
            <mxPoint x="210" y="340" as="sourcePoint" />
            <mxPoint x="310" y="240" as="targetPoint" />
          </mxGeometry>
        </mxCell>
        <mxCell id="IHEbnnW-f_empLL4NaC--90" value="" style="fontSize=12;html=1;endArrow=ERoneToMany;rounded=0;entryX=0;entryY=0.75;entryDx=0;entryDy=0;" edge="1" parent="1" target="IHEbnnW-f_empLL4NaC--2">
          <mxGeometry width="100" height="100" relative="1" as="geometry">
            <mxPoint x="500" y="340" as="sourcePoint" />
            <mxPoint x="310" y="240" as="targetPoint" />
            <Array as="points">
              <mxPoint x="500" y="340" />
            </Array>
          </mxGeometry>
        </mxCell>
        <mxCell id="IHEbnnW-f_empLL4NaC--93" value="" style="edgeStyle=entityRelationEdgeStyle;fontSize=12;html=1;endArrow=ERone;endFill=1;rounded=0;entryX=1;entryY=1;entryDx=0;entryDy=0;exitX=0;exitY=0.5;exitDx=0;exitDy=0;" edge="1" parent="1" source="IHEbnnW-f_empLL4NaC--80" target="IHEbnnW-f_empLL4NaC--5">
          <mxGeometry width="100" height="100" relative="1" as="geometry">
            <mxPoint x="90" y="470" as="sourcePoint" />
            <mxPoint x="310" y="240" as="targetPoint" />
          </mxGeometry>
        </mxCell>
      </root>
    </mxGraphModel>
  </diagram>
</mxfile>
